<?xml version="1.0" encoding="UTF-8" standalone="no"?><svg version="1.1" xmlns="http://www.w3.org/2000/svg" xmlns:xlink="http://www.w3.org/1999/xlink" width="100%" style="max-width: 512px; height:auto; max-height: 512px;" viewBox="0 0 512 512"><defs><path d="m124.37 204.61 90.56-91.93-90.56-88.48c14.28 18.46 23.21 30 26.78 34.62 24.63 31.84 25.04 76.19 1 108.48-3.7 4.97-12.96 17.41-27.78 37.31z" id="a"/><path d="m214.93 203.02 90.55-91.93-90.55-88.48c14.28 18.46 23.2 30 26.77 34.62 24.63 31.84 25.04 76.19 1 108.48-3.7 4.97-12.96 17.41-27.77 37.31z" id="b"/><path d="m305.48 204.61 90.55-91.93-90.55-88.48c14.28 18.46 23.21 30 26.78 34.62 24.62 31.84 25.03 76.19 1 108.48-3.71 4.97-12.97 17.41-27.78 37.31z" id="c"/><path d="M478.68 262.45H16.24c.78.68 1.26 1.11 1.46 1.28 17.11 15 37.17 26.25 58.89 33.03 3.66 1.14 12.8 3.99 27.44 8.55-15.82-10.84-25.7-17.61-29.66-20.32-2.33-1.6-1.2-5.26 1.63-5.26h424.8l-22.12-17.28z" id="d"/><path d="m386.61 489.25-90.55-91.93 90.55-88.48c-14.28 18.46-23.2 30-26.77 34.62-24.63 31.84-25.04 76.18-1 108.47 3.7 4.98 12.96 17.42 27.77 37.32z" id="e"/><path d="m296.06 487.66-90.55-91.93 90.55-88.48c-14.28 18.46-23.21 30-26.78 34.62-24.62 31.84-25.03 76.18-1 108.47 3.71 4.98 12.97 17.42 27.78 37.32z" id="f"/><path d="m205.51 489.25-90.55-91.93 90.55-88.48c-14.28 18.46-23.21 30-26.78 34.62-24.63 31.84-25.03 76.18-1 108.47 3.7 4.98 12.96 17.42 27.78 37.32z" id="g"/><path d="M33.32 249.55h462.44c-.78-.68-1.26-1.11-1.46-1.28-17.11-15-37.17-26.25-58.89-33.02-3.66-1.14-12.8-3.99-27.44-8.56 15.82 10.84 25.7 17.61 29.66 20.32 2.33 1.6 1.2 5.26-1.63 5.26H11.2l22.12 17.28z" id="h"/><path d="m120.09 203.22 90.55-91.93-90.55-88.48c14.28 18.46 23.21 30 26.78 34.62 24.62 31.84 25.03 76.19 1 108.48-3.71 4.97-12.97 17.41-27.78 37.31z" id="i"/><path d="m210.64 201.63 90.55-91.93-90.55-88.48c14.28 18.46 23.21 30 26.78 34.62 24.63 31.84 25.03 76.19 1 108.48-3.7 4.97-12.96 17.41-27.78 37.31z" id="j"/><path d="m301.19 203.22 90.56-91.93-90.56-88.48c14.29 18.46 23.21 30 26.78 34.62 24.63 31.84 25.04 76.19 1 108.48-3.7 4.97-12.96 17.41-27.78 37.31z" id="k"/><path d="m391.75 490.78-90.56-91.93 90.56-88.48c-14.28 18.46-23.21 30-26.78 34.62-24.63 31.84-25.04 76.18-1 108.47 3.7 4.98 12.96 17.42 27.78 37.32z" id="l"/><path d="m301.19 489.19-90.55-91.93 90.55-88.48c-14.28 18.46-23.2 30-26.77 34.62-24.63 31.84-25.04 76.18-1 108.47 3.7 4.98 12.96 17.42 27.77 37.32z" id="m"/><path d="m210.64 490.78-90.55-91.93 90.55-88.48c-14.28 18.46-23.21 30-26.78 34.62-24.62 31.84-25.03 76.18-1 108.47 3.71 4.98 12.97 17.42 27.78 37.32z" id="n"/><path d="M35.76 246.08H498.2c-.78-.68-1.27-1.11-1.46-1.28-17.11-15-37.17-26.25-58.89-33.03-3.66-1.14-12.81-3.99-27.44-8.55 15.82 10.84 25.7 17.61 29.65 20.32 2.34 1.6 1.21 5.26-1.62 5.26H13.64l22.12 17.28z" id="o"/><path d="M476.08 265.92H13.64c.78.68 1.26 1.11 1.46 1.28 17.1 15 37.17 26.25 58.89 33.03l27.43 8.55a53671 53671 0 0 0-29.65-20.32c-2.33-1.6-1.2-5.26 1.63-5.26h424.8l-22.12-17.28z" id="p"/></defs><use xlink:href="#a" opacity=".6" fill="#cb4042"/><use xlink:href="#a" opacity=".6" fill-opacity="0" stroke="#cb4042" stroke-width="0"/><use xlink:href="#b" opacity=".6" fill="#cb4042"/><use xlink:href="#b" opacity=".6" fill-opacity="0" stroke="#cb4042" stroke-width="0"/><use xlink:href="#c" opacity=".6" fill="#cb4042"/><use xlink:href="#c" opacity=".6" fill-opacity="0" stroke="#cb4042" stroke-width="0"/><use xlink:href="#d" opacity=".6" fill="#cb4042"/><use xlink:href="#d" opacity=".6" fill-opacity="0" stroke="#cb4042" stroke-width="0"/><use xlink:href="#e" opacity=".6" fill="#a5dee4"/><use xlink:href="#e" opacity=".6" fill-opacity="0" stroke="#a5dee4" stroke-width="0"/><use xlink:href="#f" opacity=".6" fill="#a5dee4"/><use xlink:href="#f" opacity=".6" fill-opacity="0" stroke="#a5dee4" stroke-width="0"/><use xlink:href="#g" opacity=".6" fill="#a5dee4"/><use xlink:href="#g" opacity=".6" fill-opacity="0" stroke="#a5dee4" stroke-width="0"/><use xlink:href="#h" opacity=".6" fill="#a5dee4"/><use xlink:href="#h" opacity=".6" fill-opacity="0" stroke="#a5dee4" stroke-width="0"/><use xlink:href="#i" fill="#fedfe1"/><use xlink:href="#i" fill-opacity="0" stroke="#cb4042" stroke-width="0"/><use xlink:href="#j" fill="#fedfe1"/><use xlink:href="#j" fill-opacity="0" stroke="#cb4042" stroke-width="0"/><use xlink:href="#k" fill="#fedfe1"/><use xlink:href="#k" fill-opacity="0" stroke="#cb4042" stroke-width="0"/><use xlink:href="#l" fill="#005caf"/><use xlink:href="#l" fill-opacity="0" stroke="#a5dee4" stroke-width="0"/><use xlink:href="#m" fill="#005caf"/><use xlink:href="#m" fill-opacity="0" stroke="#a5dee4" stroke-width="0"/><use xlink:href="#n" fill="#005caf"/><use xlink:href="#n" fill-opacity="0" stroke="#a5dee4" stroke-width="0"/><use xlink:href="#o" fill="#005caf"/><use xlink:href="#o" fill-opacity="0" stroke="#a5dee4" stroke-width="0"/><use xlink:href="#p" fill="#fedfe1"/><use xlink:href="#p" fill-opacity="0" stroke="#cb4042" stroke-width="0"/></svg>