<?xml version="1.0" encoding="UTF-8" standalone="no"?>
<!DOCTYPE svg PUBLIC "-//W3C//DTD SVG 1.1//EN" "http://www.w3.org/Graphics/SVG/1.1/DTD/svg11.dtd">
<svg version="1.1" xmlns="http://www.w3.org/2000/svg" xmlns:xlink="http://www.w3.org/1999/xlink" preserveAspectRatio="xMidYMid meet" viewBox="0 0 512 512" width="512" height="512"><defs><path d="M124.37 204.61L214.93 112.68L124.37 24.2C138.65 42.66 147.58 54.2 151.15 58.82C175.78 90.66 176.19 135.01 152.15 167.3C148.45 172.27 139.19 184.71 124.37 204.61Z" id="d2wiBW5vnQ"></path><path d="M214.93 203.02L305.48 111.09L214.93 22.61C229.21 41.07 238.13 52.61 241.7 57.23C266.33 89.07 266.74 133.42 242.7 165.71C239 170.68 229.74 183.12 214.93 203.02Z" id="c1gvGHqHD3"></path><path d="M305.48 204.61L396.03 112.68L305.48 24.2C319.76 42.66 328.69 54.2 332.26 58.82C356.88 90.66 357.29 135.01 333.26 167.3C329.55 172.27 320.29 184.71 305.48 204.61Z" id="f2WN3LMpe2"></path><path d="M478.68 262.45L16.24 262.45C17.02 263.13 17.5 263.56 17.7 263.73C34.81 278.73 54.87 289.98 76.59 296.76C80.25 297.9 89.39 300.75 104.03 305.31C88.21 294.47 78.33 287.7 74.37 284.99C72.04 283.39 73.17 279.73 76 279.73C132.64 279.73 274.24 279.73 500.8 279.73L478.68 262.45Z" id="crKmhp1Uu"></path><path d="M386.61 489.25L296.06 397.32L386.61 308.84C372.33 327.3 363.41 338.84 359.84 343.46C335.21 375.3 334.8 419.64 358.84 451.93C362.54 456.91 371.8 469.35 386.61 489.25Z" id="a2v6ZBjnof"></path><path d="M296.06 487.66L205.51 395.73L296.06 307.25C281.78 325.71 272.85 337.25 269.28 341.87C244.66 373.71 244.25 418.05 268.28 450.34C271.99 455.32 281.25 467.76 296.06 487.66Z" id="b1prq0XC8u"></path><path d="M205.51 489.25L114.96 397.32L205.51 308.84C191.23 327.3 182.3 338.84 178.73 343.46C154.1 375.3 153.7 419.64 177.73 451.93C181.43 456.91 190.69 469.35 205.51 489.25Z" id="gB5VBfV8x"></path><path d="M33.32 249.55L495.76 249.55C494.98 248.87 494.5 248.44 494.3 248.27C477.19 233.27 457.13 222.02 435.41 215.25C431.75 214.11 422.61 211.26 407.97 206.69C423.79 217.53 433.67 224.3 437.63 227.01C439.96 228.61 438.83 232.27 436 232.27C379.36 232.27 237.76 232.27 11.2 232.27L33.32 249.55Z" id="a13YNRDaWW"></path><path d="M120.09 203.22L210.64 111.29L120.09 22.81C134.37 41.27 143.3 52.81 146.87 57.43C171.49 89.27 171.9 133.62 147.87 165.91C144.16 170.88 134.9 183.32 120.09 203.22Z" id="a5t5u50pG"></path><path d="M210.64 201.63L301.19 109.7L210.64 21.22C224.92 39.68 233.85 51.22 237.42 55.84C262.05 87.68 262.45 132.03 238.42 164.32C234.72 169.29 225.46 181.73 210.64 201.63Z" id="c8AyoeTWFR"></path><path d="M301.19 203.22L391.75 111.29L301.19 22.81C315.48 41.27 324.4 52.81 327.97 57.43C352.6 89.27 353.01 133.62 328.97 165.91C325.27 170.88 316.01 183.32 301.19 203.22Z" id="a2BuVRXsA2"></path><path d="M391.75 490.78L301.19 398.85L391.75 310.37C377.47 328.83 368.54 340.37 364.97 344.99C340.34 376.83 339.93 421.17 363.97 453.46C367.67 458.44 376.93 470.88 391.75 490.78Z" id="c3aOz6PSUE"></path><path d="M301.19 489.19L210.64 397.26L301.19 308.78C286.91 327.24 277.99 338.78 274.42 343.4C249.79 375.24 249.38 419.58 273.42 451.87C277.12 456.85 286.38 469.29 301.19 489.19Z" id="c6SJ6aT11"></path><path d="M210.64 490.78L120.09 398.85L210.64 310.37C196.36 328.83 187.43 340.37 183.86 344.99C159.24 376.83 158.83 421.17 182.86 453.46C186.57 458.44 195.83 470.88 210.64 490.78Z" id="aOhqkpfUK"></path><path d="M35.76 246.08L498.2 246.08C497.42 245.4 496.93 244.97 496.74 244.8C479.63 229.8 459.57 218.55 437.85 211.77C434.19 210.63 425.04 207.78 410.41 203.22C426.23 214.06 436.11 220.83 440.06 223.54C442.4 225.14 441.27 228.8 438.44 228.8C381.8 228.8 240.2 228.8 13.64 228.8L35.76 246.08Z" id="f2oH0RO1gZ"></path><path d="M476.08 265.92L13.64 265.92C14.42 266.6 14.9 267.03 15.1 267.2C32.2 282.2 52.27 293.45 73.99 300.23C77.65 301.37 86.79 304.22 101.42 308.78C85.61 297.94 75.73 291.17 71.77 288.46C69.44 286.86 70.57 283.2 73.4 283.2C130.04 283.2 271.64 283.2 498.2 283.2L476.08 265.92Z" id="i29iyBYUzc"></path></defs><g><g><g><g><g><use xlink:href="#d2wiBW5vnQ" opacity="0.6" fill="#cb4042" fill-opacity="1"></use><g><use xlink:href="#d2wiBW5vnQ" opacity="0.6" fill-opacity="0" stroke="#cb4042" stroke-width="0" stroke-opacity="1"></use></g></g><g><use xlink:href="#c1gvGHqHD3" opacity="0.6" fill="#cb4042" fill-opacity="1"></use><g><use xlink:href="#c1gvGHqHD3" opacity="0.6" fill-opacity="0" stroke="#cb4042" stroke-width="0" stroke-opacity="1"></use></g></g><g><use xlink:href="#f2WN3LMpe2" opacity="0.6" fill="#cb4042" fill-opacity="1"></use><g><use xlink:href="#f2WN3LMpe2" opacity="0.6" fill-opacity="0" stroke="#cb4042" stroke-width="0" stroke-opacity="1"></use></g></g></g><g><use xlink:href="#crKmhp1Uu" opacity="0.6" fill="#cb4042" fill-opacity="1"></use><g><use xlink:href="#crKmhp1Uu" opacity="0.6" fill-opacity="0" stroke="#cb4042" stroke-width="0" stroke-opacity="1"></use></g></g><g><g><use xlink:href="#a2v6ZBjnof" opacity="0.6" fill="#a5dee4" fill-opacity="1"></use><g><use xlink:href="#a2v6ZBjnof" opacity="0.6" fill-opacity="0" stroke="#a5dee4" stroke-width="0" stroke-opacity="1"></use></g></g><g><use xlink:href="#b1prq0XC8u" opacity="0.6" fill="#a5dee4" fill-opacity="1"></use><g><use xlink:href="#b1prq0XC8u" opacity="0.6" fill-opacity="0" stroke="#a5dee4" stroke-width="0" stroke-opacity="1"></use></g></g><g><use xlink:href="#gB5VBfV8x" opacity="0.6" fill="#a5dee4" fill-opacity="1"></use><g><use xlink:href="#gB5VBfV8x" opacity="0.6" fill-opacity="0" stroke="#a5dee4" stroke-width="0" stroke-opacity="1"></use></g></g></g><g><use xlink:href="#a13YNRDaWW" opacity="0.6" fill="#a5dee4" fill-opacity="1"></use><g><use xlink:href="#a13YNRDaWW" opacity="0.6" fill-opacity="0" stroke="#a5dee4" stroke-width="0" stroke-opacity="1"></use></g></g><g><g><g><use xlink:href="#a5t5u50pG" opacity="1" fill="#fedfe1" fill-opacity="1"></use><g><use xlink:href="#a5t5u50pG" opacity="1" fill-opacity="0" stroke="#cb4042" stroke-width="0" stroke-opacity="1"></use></g></g><g><use xlink:href="#c8AyoeTWFR" opacity="1" fill="#fedfe1" fill-opacity="1"></use><g><use xlink:href="#c8AyoeTWFR" opacity="1" fill-opacity="0" stroke="#cb4042" stroke-width="0" stroke-opacity="1"></use></g></g><g><use xlink:href="#a2BuVRXsA2" opacity="1" fill="#fedfe1" fill-opacity="1"></use><g><use xlink:href="#a2BuVRXsA2" opacity="1" fill-opacity="0" stroke="#cb4042" stroke-width="0" stroke-opacity="1"></use></g></g></g><g><g><use xlink:href="#c3aOz6PSUE" opacity="1" fill="#005caf" fill-opacity="1"></use><g><use xlink:href="#c3aOz6PSUE" opacity="1" fill-opacity="0" stroke="#a5dee4" stroke-width="0" stroke-opacity="1"></use></g></g><g><use xlink:href="#c6SJ6aT11" opacity="1" fill="#005caf" fill-opacity="1"></use><g><use xlink:href="#c6SJ6aT11" opacity="1" fill-opacity="0" stroke="#a5dee4" stroke-width="0" stroke-opacity="1"></use></g></g><g><use xlink:href="#aOhqkpfUK" opacity="1" fill="#005caf" fill-opacity="1"></use><g><use xlink:href="#aOhqkpfUK" opacity="1" fill-opacity="0" stroke="#a5dee4" stroke-width="0" stroke-opacity="1"></use></g></g></g><g><use xlink:href="#f2oH0RO1gZ" opacity="1" fill="#005caf" fill-opacity="1"></use><g><use xlink:href="#f2oH0RO1gZ" opacity="1" fill-opacity="0" stroke="#a5dee4" stroke-width="0" stroke-opacity="1"></use></g></g><g><use xlink:href="#i29iyBYUzc" opacity="1" fill="#fedfe1" fill-opacity="1"></use><g><use xlink:href="#i29iyBYUzc" opacity="1" fill-opacity="0" stroke="#cb4042" stroke-width="0" stroke-opacity="1"></use></g></g></g></g></g></g></svg>